<?xml version="1.0" encoding="UTF-8" standalone="no"?>
<svg
   id="Filled"
   viewBox="0 0 24 24"
   width="512"
   height="512"
   version="1.1"
   xmlns="http://www.w3.org/2000/svg"
   xmlns:svg="http://www.w3.org/2000/svg">
  <defs
     id="defs2" />
  <path
     d="M22.713,4.077A2.993,2.993,0,0,0,20.41,3H4.242L4.2,2.649A3,3,0,0,0,1.222,0H1A1,1,0,0,0,1,2h.222a1,1,0,0,1,.993.883l1.376,11.7A5,5,0,0,0,8.557,19H19a1,1,0,0,0,0-2H8.557a3,3,0,0,1-2.82-2h11.92a5,5,0,0,0,4.921-4.113l.785-4.354A2.994,2.994,0,0,0,22.713,4.077Z"
     id="path1" />
  <circle
     cx="7"
     cy="22"
     r="2"
     id="circle1" />
  <circle
     cx="17"
     cy="22"
     r="2"
     id="circle2" />
  <path
     style="fill:#ffffff;stroke-width:0.575928"
     d="M 171.9762,404.51046 C 153.31371,402.54644 135.43654,395.70354 119.92099,384.58512 109.85108,377.36904 97.762749,364.10644 91.076391,352.93854 85.818664,344.15681 81.012326,331.90543 78.65166,321.26782 78.0068,318.36197 70.739734,258.62384 62.502622,188.51642 54.265509,118.40899 47.251685,59.912075 46.916347,58.523276 45.434607,52.386658 41.687323,47.821632 35.704517,44.864768 31.658578,42.865157 31.058295,42.739109 23.772143,42.359203 17.269186,42.020133 15.603923,41.732046 12.844531,40.468755 8.3098994,38.392732 4.6758508,34.845035 2.4476552,30.318927 0.75176741,26.87409 0.57677889,26.028822 0.58498511,21.321446 0.59267565,16.90991 0.82627729,15.627545 2.1331779,12.822582 4.0969305,8.6078373 8.5959599,4.1049956 12.822582,2.1241207 16.022446,0.62445311 16.432857,0.57778653 25.91676,0.63522464 34.483624,0.68710878 36.403694,0.87947824 41.276495,2.1740979 53.09102,5.3130148 62.80234,10.876938 71.127109,19.276459 81.807003,30.052253 87.515054,42.220977 89.569332,58.592537 l 0.703577,5.60716 177.171761,0.177081 c 163.03887,0.162953 177.47622,0.253598 180.98855,1.136312 24.98043,6.278058 42.31846,22.999552 48.73658,47.00352 1.29864,4.85695 1.48819,6.73324 1.52057,15.05144 l 0.037,9.50282 -9.04547,49.5298 c -4.97501,27.2414 -9.71019,51.98797 -10.52261,54.99238 -5.77211,21.34579 -19.5748,42.08196 -36.85552,55.3691 -17.15292,13.18888 -36.32383,20.6127 -57.8329,22.39545 -3.98412,0.33022 -57.99856,0.55584 -134.37412,0.56129 -102.1613,0.007 -127.71204,0.15396 -127.71204,0.73307 0,0.39818 1.28171,3.31381 2.84824,6.47919 8.79404,17.76951 24.18229,29.79288 44.08989,34.44897 5.15693,1.20612 5.78685,1.21388 123.53656,1.52138 l 118.35321,0.30907 3.6356,1.97123 c 7.37172,3.99694 11.2175,10.39221 11.28258,18.76218 0.0311,3.99308 -0.20047,5.10658 -1.73635,8.35096 -2.24959,4.75201 -5.82648,8.3323 -10.59016,10.60021 l -3.74353,1.78224 -116.62542,0.0709 c -64.14398,0.039 -118.80059,-0.15804 -121.45912,-0.43782 z"
     id="path2"
     transform="scale(0.046875)" />
  <path
     style="fill:#ffffff;stroke-width:0.575928"
     d="m 142.00956,511.12553 c -14.92483,-3.16061 -26.56478,-12.78533 -32.13235,-26.56927 -3.10059,-7.67628 -3.70287,-17.25352 -1.60623,-25.54164 0.48079,-1.90056 2.082,-5.91699 3.55825,-8.9254 2.24756,-4.58023 3.48927,-6.26627 7.63475,-10.36671 2.72285,-2.69327 6.43476,-5.76903 8.24868,-6.83501 9.13637,-5.36915 21.00636,-7.17664 31.1644,-4.74553 19.39508,4.64178 32.619,21.36045 32.619,41.23936 0,18.81615 -12.01081,34.93855 -30.23622,40.58682 -4.57982,1.41934 -15.04277,2.04841 -19.25028,1.15738 z"
     id="path3"
     transform="scale(0.046875)" />
  <path
     style="fill:#ffffff;stroke-width:0.575928"
     d="m 355.49927,511.11721 c -13.07717,-2.20198 -24.55452,-10.86284 -30.78141,-23.22779 -8.59102,-17.05949 -3.89283,-39.04879 10.90293,-51.02986 14.07273,-11.39559 33.33386,-12.96741 48.67363,-3.97206 1.81782,1.06598 5.53653,4.15542 8.26379,6.86542 4.13283,4.10668 5.40316,5.83317 7.62765,10.36671 4.46337,9.09635 5.81087,17.45889 4.22385,26.21308 -1.65482,9.12826 -5.35094,16.09851 -12.21966,23.04424 -3.93505,3.97916 -5.52323,5.1161 -10.65467,7.62744 -8.71848,4.26684 -17.18177,5.60375 -26.03611,4.11282 z"
     id="path4"
     transform="scale(0.046875)" />
</svg>
