<?xml version="1.0" encoding="UTF-8" standalone="no"?>
<svg
   id="Layer_1"
   data-name="Layer 1"
   viewBox="0 0 24 24"
   version="1.1"
   sodipodi:docname="dm.svg"
   inkscape:version="1.3.2 (091e20e, 2023-11-25, custom)"
   xmlns:inkscape="http://www.inkscape.org/namespaces/inkscape"
   xmlns:sodipodi="http://sodipodi.sourceforge.net/DTD/sodipodi-0.dtd"
   xmlns="http://www.w3.org/2000/svg"
   xmlns:svg="http://www.w3.org/2000/svg">
  <defs
     id="defs1" />
  <sodipodi:namedview
     id="namedview1"
     pagecolor="#505050"
     bordercolor="#ffffff"
     borderopacity="1"
     inkscape:showpageshadow="0"
     inkscape:pageopacity="0"
     inkscape:pagecheckerboard="1"
     inkscape:deskcolor="#505050"
     inkscape:zoom="37.041667"
     inkscape:cx="11.986502"
     inkscape:cy="12.013498"
     inkscape:window-width="1920"
     inkscape:window-height="1166"
     inkscape:window-x="-11"
     inkscape:window-y="-11"
     inkscape:window-maximized="1"
     inkscape:current-layer="Layer_1" />
  <path
     d="M19,3h-6.528c-.154,0-.309-.037-.446-.105l-3.156-1.578c-.414-.207-.878-.316-1.341-.316h-2.528C2.243,1,0,3.243,0,6v12c0,2.757,2.243,5,5,5h14c2.757,0,5-2.243,5-5V8c0-2.757-2.243-5-5-5Zm-9.5,15.586c.391,.39,.391,1.024,0,1.414-.391,.39-1.024,.39-1.414,0l-1.086-1.086-1.086,1.086c-.391,.39-1.024,.39-1.414,0-.391-.391-.391-1.024,0-1.414l1.086-1.086-1.086-1.086c-.391-.391-.391-1.024,0-1.414,.391-.391,1.024-.391,1.414,0l1.086,1.086,1.086-1.086c.391-.391,1.024-.391,1.414,0,.391,.39,.391,1.024,0,1.414l-1.086,1.086,1.086,1.086Zm.5-9.586c0,.552-.448,1-1,1h-1v1c0,.552-.448,1-1,1h0c-.552,0-1-.448-1-1v-1h-1c-.552,0-1-.448-1-1h0c0-.552,.448-1,1-1h1v-1c0-.552,.448-1,1-1h0c.552,0,1,.448,1,1v1h1c.552,0,1,.448,1,1h0Zm10,10c0,.552-.448,1-1,1h-4c-.552,0-1-.448-1-1h0c0-.552,.448-1,1-1h4c.552,0,1,.448,1,1h0Zm0-3c0,.552-.448,1-1,1h-4c-.552,0-1-.448-1-1h0c0-.552,.448-1,1-1h4c.552,0,1,.448,1,1h0Zm0-7c0,.552-.448,1-1,1h-4c-.552,0-1-.448-1-1h0c0-.552,.448-1,1-1h4c.552,0,1,.448,1,1h0Z"
     id="path1" />
  <path
     style="fill:#ffffff;stroke-width:0.0269966"
     d="M 4.4679415,22.957764 C 3.7423133,22.874321 2.939567,22.594008 2.3487064,22.217744 1.1339777,21.444195 0.33175319,20.234688 0.07496971,18.789651 0.02988285,18.535927 0.02699663,18.128251 0.02699663,12.013498 c 0,-6.1774002 0.002494,-6.5209951 0.04935266,-6.7992275 0.37860154,-2.24802 2.18449721,-3.9449029 4.44169661,-4.1735739 0.3740013,-0.037889 3.1204638,-0.037381 3.3937382,6.285e-4 0.460104,0.063995 0.6017049,0.1241232 2.4414219,1.0367116 0.972553,0.4824334 1.816873,0.8894444 1.876265,0.9044688 0.07002,0.017712 1.314944,0.02737 3.540447,0.027468 2.189828,9.6e-5 3.533673,0.010366 3.712036,0.028368 1.148556,0.1159217 2.216153,0.6230821 3.034701,1.4416299 0.83197,0.8319701 1.324544,1.8737539 1.443081,3.0520878 0.02108,0.2095149 0.02725,1.8750012 0.02095,5.6557938 -0.0083,4.969448 -0.01236,5.377465 -0.05627,5.615298 -0.397021,2.150703 -1.970119,3.723864 -4.122391,4.122556 -0.240489,0.04455 -0.719861,0.04775 -7.694038,0.05142 -4.0906642,0.0022 -7.5286844,-0.0066 -7.6400455,-0.01937 z m 0.8958539,-2.668251 c 0.2994468,-0.04905 0.4006094,-0.123167 1.0359668,-0.759018 l 0.5903774,-0.590835 0.5985635,0.593235 c 0.6419282,0.636212 0.7267243,0.697553 1.0458322,0.756543 0.3063988,0.05664 0.6998182,-0.08096 0.9081406,-0.317626 0.210287,-0.238898 0.3019929,-0.558849 0.2442725,-0.852236 -0.059696,-0.303428 -0.1278992,-0.39617 -0.7593827,-1.032594 L 8.4374997,17.4923 9.0317993,16.899131 c 0.6410981,-0.639878 0.7034695,-0.725002 0.7579843,-1.034488 0.075751,-0.430047 -0.1599029,-0.876764 -0.5684151,-1.077512 -0.1335909,-0.06565 -0.1808377,-0.07396 -0.4204686,-0.07397 -0.4260062,-8e-6 -0.4687983,0.02685 -1.1943356,0.749603 l -0.6004098,0.598107 -0.60094,-0.59541 c -0.7297528,-0.723031 -0.7762397,-0.7523 -1.1948658,-0.7523 -0.2366035,0 -0.2891025,0.009 -0.4248132,0.07257 -0.1984501,0.09301 -0.4096706,0.3046 -0.4991342,0.500014 -0.1302087,0.284414 -0.1074832,0.683998 0.054184,0.952724 0.031264,0.05197 0.3181223,0.358956 0.6374613,0.682194 l 0.5806167,0.587705 -0.5978438,0.600146 c -0.7179596,0.720724 -0.7493461,0.770173 -0.7493461,1.180574 0,0.225507 0.00937,0.276747 0.077593,0.424451 0.1323728,0.286578 0.4183173,0.512221 0.7260885,0.572965 0.1583849,0.03126 0.1752756,0.03141 0.3486404,0.003 z M 19.383577,19.93937 c 0.114175,-0.04591 0.210482,-0.113631 0.326322,-0.229471 0.217544,-0.217543 0.290594,-0.397464 0.291547,-0.71807 6e-4,-0.201952 -0.0096,-0.251711 -0.08413,-0.411017 -0.101744,-0.217424 -0.27392,-0.393449 -0.487366,-0.498265 l -0.154355,-0.0758 h -2.267717 -2.267717 l -0.153209,0.07182 c -0.204743,0.09598 -0.372984,0.256276 -0.484169,0.461305 -0.08751,0.161381 -0.09153,0.181221 -0.09153,0.45225 0,0.250786 0.0083,0.301193 0.07209,0.437251 0.123652,0.263794 0.404072,0.491108 0.690459,0.559698 0.05646,0.01352 1.063845,0.02231 2.274576,0.01985 l 2.173228,-0.0044 z m -0.200354,-2.945397 c 0.212975,-0.04039 0.370814,-0.126669 0.540171,-0.295271 0.202054,-0.201155 0.276524,-0.388964 0.278831,-0.703201 0.0015,-0.203434 -0.008,-0.249998 -0.08372,-0.410368 -0.104809,-0.222001 -0.284939,-0.407211 -0.48913,-0.502923 L 19.275589,15.01012 H 16.994374 14.713159 L 14.56067,15.0874 c -0.189353,0.09596 -0.373807,0.281473 -0.473436,0.476153 -0.06907,0.134958 -0.07599,0.174298 -0.07599,0.431946 0,0.258563 0.0069,0.297564 0.07881,0.443973 0.140178,0.285498 0.38135,0.475601 0.690595,0.54436 0.191602,0.0426 4.182931,0.05179 4.402571,0.01014 z M 7.4173434,11.925757 c 0.1766354,-0.0795 0.4003934,-0.299042 0.4948295,-0.485514 l 0.078828,-0.155654 0.0085,-0.639418 0.0085,-0.639419 0.6394189,-0.0085 0.6394188,-0.0085 0.1557271,-0.078907 C 9.628689,9.8155373 9.8456585,9.5947079 9.9276086,9.4161735 9.9765225,9.3096111 9.9871316,9.2369294 9.9878632,9.0033746 9.9886685,8.7463942 9.9816697,8.7054884 9.9129533,8.5655546 9.7662444,8.2667962 9.5021286,8.0683672 9.1664436,8.004706 9.0875506,7.9897442 8.7946464,7.9775028 8.5155456,7.9775028 H 8.0080897 L 7.9995453,7.3498313 C 7.9910333,6.7245146 7.9907169,6.7215807 7.915203,6.5678044 7.6645566,6.0573873 7.0596645,5.8467512 6.5499912,6.0924092 6.3908787,6.1690998 6.1696476,6.3897392 6.0935546,6.5476252 6.0021273,6.7373278 5.9797525,6.9177573 5.9797525,7.4653226 V 7.9716443 L 5.3790776,7.9838833 C 4.8740787,7.9941733 4.7578234,8.0042253 4.6492017,8.0469873 4.2273716,8.2130557 3.9477076,8.660156 3.9921325,9.0974476 c 0.022128,0.2178185 0.1711613,0.5193975 0.3213324,0.6502396 0.06269,0.054621 0.1807983,0.131205 0.2624631,0.170187 0.1450726,0.06925 0.1628917,0.071073 0.776153,0.079421 l 0.6276715,0.00854 v 0.520136 c 0,0.286076 0.013633,0.58802 0.030295,0.670988 0.066065,0.328963 0.2943814,0.606301 0.60769,0.738165 0.1386176,0.05834 0.1904666,0.06553 0.414883,0.05751 0.1890053,-0.0068 0.2902048,-0.02435 0.3847225,-0.06688 z M 19.424072,9.9178747 c 0.08167,-0.038982 0.199773,-0.1155663 0.262463,-0.170187 0.150171,-0.1308421 0.299204,-0.4324211 0.321333,-0.6502396 0.04513,-0.4442535 -0.246633,-0.9009314 -0.674653,-1.0559849 -0.129924,-0.047066 -0.270361,-0.050704 -2.23989,-0.058033 -1.357419,-0.00505 -2.154406,0.002 -2.251361,0.019926 -0.341606,0.063149 -0.606856,0.260684 -0.754917,0.5621974 -0.06845,0.1393987 -0.0758,0.1818223 -0.0758,0.43782 0,0.2577478 0.0069,0.2969353 0.07606,0.431946 0.127343,0.2485884 0.32309,0.4266385 0.565591,0.5144587 0.134904,0.048855 0.241915,0.05088 2.38197,0.045063 l 2.24072,-0.00609 z"
     id="path2"
     inkscape:export-filename="path2.svg"
     inkscape:export-xdpi="96"
     inkscape:export-ydpi="96" />
</svg>
